HIERARCHY
ROOT Hips
{
	OFFSET	0.00	0.00	0.00
	CHANNELS 6 Xposition Yposition Zposition Zrotation Xrotation Yrotation
	JOINT LeftUpLeg
	{
		OFFSET	 0.126116	-0.014019	-0.065224
		CHANNELS 3 Zrotation Xrotation Yrotation
		JOINT LeftLeg
		{
			OFFSET	 0.000000	 0.000000	 0.569914
			CHANNELS 3 Zrotation Xrotation Yrotation
			JOINT LeftFoot
			{
				OFFSET	 0.000000	 0.000000	 0.544423
				CHANNELS 3 Zrotation Xrotation Yrotation
				JOINT LeftToeBase
				{
					OFFSET	 0.000000	 0.000000	 0.207117
					CHANNELS 3 Zrotation Xrotation Yrotation
					End Site
					{
						OFFSET	 0.000000	 0.000000	 0.207117
					}
				}
			}
		}
	}
	JOINT RightUpLeg
	{
		OFFSET	-0.124023	-0.008373	-0.065224
		CHANNELS 3 Zrotation Xrotation Yrotation
		JOINT RightLeg
		{
			OFFSET	 0.000000	 0.000000	 0.570047
			CHANNELS 3 Zrotation Xrotation Yrotation
			JOINT RightFoot
			{
				OFFSET	 0.000000	 0.000000	 0.544354
				CHANNELS 3 Zrotation Xrotation Yrotation
				JOINT RightToeBase
				{
					OFFSET	 0.000000	 0.000000	 0.207540
					CHANNELS 3 Zrotation Xrotation Yrotation
					End Site
					{
						OFFSET	 0.000000	 0.000000	 0.207540
					}
				}
			}
		}
	}
	JOINT Spine
	{
		OFFSET	 0.000184	-0.007763	 0.117403
		CHANNELS 3 Zrotation Xrotation Yrotation
		JOINT Spine1
		{
			OFFSET	 0.000000	 0.000000	 0.137269
			CHANNELS 3 Zrotation Xrotation Yrotation
			JOINT Spine2
			{
				OFFSET	 0.000000	 0.000000	 0.156879
				CHANNELS 3 Zrotation Xrotation Yrotation
				JOINT LeftShoulder
				{
					OFFSET	 0.080501	-0.002496	 0.160144
					CHANNELS 3 Zrotation Xrotation Yrotation
					JOINT LeftArm
					{
						OFFSET	 0.000000	 0.000000	 0.164363
						CHANNELS 3 Zrotation Xrotation Yrotation
						JOINT LeftForeArm
						{
							OFFSET	 0.000000	 0.000000	 0.364576
							CHANNELS 3 Zrotation Xrotation Yrotation
							JOINT LeftHand
							{
								OFFSET	 0.000000	 0.000000	 0.360812
								CHANNELS 3 Zrotation Xrotation Yrotation
								JOINT LeftHandIndex1
								{
									OFFSET	 0.000000	 0.000000	 0.086006
									CHANNELS 3 Zrotation Xrotation Yrotation
									JOINT LeftHandIndex2
									{
										OFFSET	 0.000000	 0.000000	 0.047236
										CHANNELS 3 Zrotation Xrotation Yrotation
										JOINT LeftHandIndex3
										{
											OFFSET	-0.004284	-0.000551	 0.038166
											CHANNELS 3 Zrotation Xrotation Yrotation
											End Site
											{
												OFFSET	-0.004284	-0.000551	 0.038166
											}
										}
									}
								}
							}
						}
					}
				}
				JOINT Neck
				{
					OFFSET	 0.000000	 0.000000	 0.176489
					CHANNELS 3 Zrotation Xrotation Yrotation
					JOINT Head
					{
						OFFSET	 0.000000	-0.001747	 0.077940
						CHANNELS 3 Zrotation Xrotation Yrotation
						End Site
						{
							OFFSET	 0.000000	-0.001747	 0.077940
						}
					}
				}
				JOINT RightShoulder
				{
					OFFSET	-0.080363	 0.000306	 0.159706
					CHANNELS 3 Zrotation Xrotation Yrotation
					JOINT RightArm
					{
						OFFSET	 0.000000	 0.000000	 0.164196
						CHANNELS 3 Zrotation Xrotation Yrotation
						JOINT RightForeArm
						{
							OFFSET	 0.000000	 0.000000	 0.365611
							CHANNELS 3 Zrotation Xrotation Yrotation
							JOINT RightHand
							{
								OFFSET	 0.000000	 0.000000	 0.360648
								CHANNELS 3 Zrotation Xrotation Yrotation
								JOINT RightHandIndex1
								{
									OFFSET	 0.000000	 0.000000	 0.069977
									CHANNELS 3 Zrotation Xrotation Yrotation
									JOINT RightHandIndex2
									{
										OFFSET	 0.000000	 0.000000	 0.052305
										CHANNELS 3 Zrotation Xrotation Yrotation
										JOINT RightHandIndex3
										{
											OFFSET	 0.009002	-0.000782	 0.042196
											CHANNELS 3 Zrotation Xrotation Yrotation
											End Site
											{
												OFFSET	 0.009002	-0.000782	 0.042196
											}
										}
									}
								}
							}
						}
					}
				}
			}
		}
	}
}
MOTION
Frames:    7
Frame Time: 0.03333334
-0.041217	 0.262013	 0.990387	 2.681048	 34.162880	-7.756043	-18.677290	-86.488550	 163.282800	 8.894175	-76.300860	 9.050296	-53.903260	 83.678290	 59.487620	-2.385832	 28.452790	-0.000001	 91.187930	-75.913560	-96.620770	-23.268870	-79.472400	-17.837010	 82.269140	 79.526830	-74.754810	 2.384659	 28.388700	-0.000001	 0.109458	 15.540560	 0.723334	-2.202580	 22.812360	 1.891407	-3.764673	-0.936812	 3.435817	-99.139620	 68.198870	 156.865700	 7.995261	-5.318066	-44.171050	-6.698160	 8.107681	-24.483180	-30.945570	-37.162430	-21.449580	-2.027600	 6.559038	 9.033609	-5.188889	 0.308190	 3.541030	-5.234859	 0.342567	 0.430617	 0.308844	 17.346020	-5.892263	-2.509579	-26.343790	-1.981309	 97.424550	 64.643240	-159.198200	-4.749155	 4.067274	 52.741920	-6.721030	 0.478877	 27.228540	 13.408300	-36.461780	 16.249360	 1.803333	 3.979147	-15.098590	 4.898592	 3.004813	-9.310344	 5.224449	 0.395017	 2.014677
-0.040861	 0.261586	 0.996369	 2.507434	 33.636130	-7.421720	-18.811450	-85.343480	 163.236500	 8.113269	-75.550050	 8.263762	-52.955130	 83.507460	 58.530430	-2.385832	 28.452790	-0.000001	 86.550410	-75.987630	-101.364000	-22.191550	-78.644060	-16.730390	 80.850430	 79.556450	-73.222990	 2.384659	 28.388700	-0.000001	 0.224114	 15.562280	 0.639530	-2.047955	 23.237490	 1.689327	-3.775644	-1.605032	 3.257731	-98.961310	 68.286640	 157.281700	 7.829463	-4.291535	-44.509220	-6.469236	 8.187430	-25.004510	-31.330230	-37.110920	-21.773600	-2.027600	 6.559038	 9.033609	-5.188889	 0.308190	 3.541030	-5.234859	 0.342567	 0.430617	-0.030046	 15.217560	-5.074785	-2.731021	-24.228540	-2.322993	 97.308370	 64.523730	-159.602500	-5.050101	 4.040438	 52.904110	-6.417834	 0.643820	 27.553760	 13.712140	-36.317750	 17.042560	 1.803333	 3.979147	-15.098590	 4.898592	 3.004813	-9.310344	 5.224449	 0.395017	 2.014677
-0.040523	 0.261178	 1.002410	 2.404213	 33.129010	-7.151343	-18.979580	-84.211250	 163.227600	 7.570019	-74.747440	 7.708685	-51.543120	 83.294010	 57.023880	-2.385832	 28.452790	-0.000001	 81.928190	-75.963120	-106.023700	-21.251080	-77.808770	-15.759850	 79.153500	 79.582840	-71.443310	 2.384659	 28.388700	-0.000001	 0.324148	 15.600260	 0.578868	-1.869805	 23.609080	 1.468176	-3.817849	-2.231337	 3.093438	-98.703900	 68.549480	 157.684600	 7.736926	-3.144794	-44.984550	-6.237460	 8.230129	-25.440580	-31.747530	-37.098470	-22.200170	-2.027600	 6.559038	 9.033609	-5.188889	 0.308190	 3.541030	-5.234859	 0.342567	 0.430617	-0.299722	 12.969920	-4.526044	-2.852666	-21.997370	-2.466655	 97.176070	 64.310140	-160.133700	-5.381392	 3.845673	 53.129040	-6.185855	 0.777215	 27.931930	 13.776200	-36.023490	 17.738390	 1.803333	 3.979147	-15.098590	 4.898592	 3.004813	-9.310344	 5.224449	 0.395017	 2.014677
-0.039999	 0.260357	 1.008556	 2.305279	 32.587970	-6.884175	-18.862880	-83.035030	 163.514500	 7.078999	-73.929090	 7.205751	-50.176590	 83.090230	 55.556280	-2.385832	 28.452790	-0.000001	 77.065190	-75.829240	-110.914100	-20.443040	-76.973910	-14.920920	 77.619090	 79.627260	-69.801530	 2.384659	 28.388700	-0.000001	 0.419474	 15.627550	 0.516485	-1.681847	 23.910290	 1.250290	-3.868459	-2.828837	 2.927058	-98.447370	 68.814730	 158.090400	 7.741499	-1.910374	-45.404610	-6.037462	 8.273371	-25.891360	-32.113720	-37.065050	-22.610120	-2.027600	 6.559038	 9.033609	-5.188889	 0.308190	 3.541030	-5.234859	 0.342567	 0.430617	-0.546635	 10.710790	-3.991621	-2.957845	-19.759050	-2.597036	 97.040500	 64.095440	-160.666800	-5.769066	 3.678576	 53.247660	-5.957906	 0.916700	 28.415910	 13.836620	-35.697170	 18.420910	 1.803333	 3.979147	-15.098590	 4.898592	 3.004813	-9.310344	 5.224449	 0.395017	 2.014677
-0.039303	 0.259395	 1.014930	 2.160574	 31.935270	-6.549331	-18.689710	-81.727130	 163.834100	 6.640956	-73.098060	 6.755520	-48.969740	 82.917530	 54.213540	-2.385832	 28.452790	-0.000001	 71.704230	-75.572750	-116.340100	-19.816210	-76.104170	-14.258350	 76.349370	 79.674100	-68.406040	 2.384659	 28.388700	-0.000001	 0.463921	 15.680230	 0.452841	-1.526207	 24.220610	 1.059839	-3.918842	-3.569275	 2.721762	-98.004490	 69.432470	 158.552800	 7.969227	-0.258924	-46.005500	-5.742288	 8.251598	-26.211740	-32.722910	-37.038800	-23.380760	-2.027600	 6.559038	 9.033609	-5.188889	 0.308190	 3.541030	-5.234859	 0.342567	 0.430617	-0.758937	 7.817957	-3.370727	-3.105411	-16.939480	-2.824951	 96.863360	 64.185160	-161.036900	-6.282679	 4.103736	 53.242230	-6.009140	 0.908848	 28.949600	 13.724970	-35.301680	 18.873800	 1.803333	 3.979147	-15.098590	 4.898592	 3.004813	-9.310344	 5.224449	 0.395017	 2.014677
-0.038334	 0.258542	 1.022090	 2.019620	 31.250290	-6.223221	-18.234300	-80.323460	 164.450900	 6.202531	-72.128080	 6.302307	-47.403590	 82.711000	 52.505010	-2.385833	 28.452760	 0.000004	 66.182820	-75.122830	-121.906300	-19.151620	-75.106600	-13.552470	 74.875660	 79.702870	-66.791400	 2.384659	 28.388700	-0.000001	 0.487481	 15.700750	 0.392710	-1.381016	 24.441020	 0.886966	-3.974984	-4.263968	 2.517157	-97.556010	 70.072020	 159.003800	 8.370883	 1.486663	-46.521400	-5.482491	 8.233244	-26.549040	-33.272170	-36.991120	-24.140850	-2.027600	 6.559038	 9.033609	-5.188889	 0.308190	 3.541030	-5.234859	 0.342567	 0.430617	-0.930538	 4.956067	-2.774415	-3.231869	-14.158200	-3.040365	 96.689480	 64.307750	-161.378500	-6.876294	 4.616543	 53.064320	-6.094213	 0.885098	 29.603340	 13.588150	-34.895840	 19.276280	 1.803333	 3.979147	-15.098590	 4.898592	 3.004813	-9.310344	 5.224449	 0.395017	 2.014677
-0.037122	 0.257884	 1.030120	 1.873589	 30.502830	-5.870449	-17.721060	-78.783530	 165.128200	 5.864641	-71.004870	 5.941667	-45.602690	 82.480230	 50.511910	-2.385833	 28.452760	 0.000004	 60.500100	-74.472600	-127.621500	-18.534600	-73.949180	-12.884160	 73.214170	 79.708790	-64.954570	 2.384659	 28.388700	-0.000001	 0.500323	 15.731460	 0.323265	-1.227424	 24.624810	 0.685463	-4.024690	-4.965753	 2.336431	-96.946610	 71.033070	 159.440000	 8.934030	 3.546808	-47.236260	-5.211550	 8.191680	-26.847020	-33.850850	-36.960430	-24.884190	-2.027600	 6.559038	 9.033609	-5.188889	 0.308190	 3.541030	-5.234859	 0.342567	 0.430617	-1.072939	 1.990364	-2.388783	-3.291785	-11.284200	-3.078282	 96.396770	 64.750300	-161.766200	-7.521688	 5.523691	 53.004150	-6.239000	 0.825473	 30.294300	 13.531070	-34.662440	 19.667960	 1.803333	 3.979147	-15.098590	 4.898592	 3.004813	-9.310344	 5.224449	 0.395017	 2.014677
